<svg width="10" height="9" viewBox="0 0 10 9" fill="none" xmlns="http://www.w3.org/2000/svg">
<path d="M8.7622 1.28462C8.30325 0.786847 7.67351 0.512695 6.98884 0.512695C6.47706 0.512695 6.00837 0.674494 5.59576 0.99356C5.38756 1.15462 5.19891 1.35166 5.03258 1.58164C4.86631 1.35172 4.67759 1.15462 4.46932 0.99356C4.05678 0.674494 3.58809 0.512695 3.07631 0.512695C2.39164 0.512695 1.76183 0.786847 1.30288 1.28462C0.84941 1.77658 0.599609 2.44867 0.599609 3.17717C0.599609 3.92698 0.879037 4.61334 1.47895 5.33724C2.01562 5.98477 2.78694 6.64212 3.68015 7.40329C3.98514 7.66323 4.33086 7.95788 4.68984 8.27174C4.78467 8.3548 4.90636 8.40053 5.03258 8.40053C5.15873 8.40053 5.28048 8.3548 5.37518 8.27187C5.73416 7.95795 6.08008 7.66317 6.38521 7.40308C7.27828 6.64205 8.0496 5.98477 8.58627 5.33717C9.18618 4.61334 9.46554 3.92698 9.46554 3.1771C9.46554 2.44867 9.21574 1.77658 8.7622 1.28462Z" fill="#AFAFAF"/>
</svg>
