<svg width="18" height="16" viewBox="0 0 18 16" fill="none" xmlns="http://www.w3.org/2000/svg">
<path d="M16.0385 1.51675C15.1368 0.538676 13.8994 0 12.5541 0C11.5485 0 10.6276 0.317916 9.81685 0.944843C9.40776 1.2613 9.03708 1.64846 8.71026 2.10035C8.38357 1.64859 8.01276 1.2613 7.60354 0.944843C6.79293 0.317916 5.87201 0 4.86643 0C3.52113 0 2.28363 0.538676 1.38184 1.51675C0.490829 2.48339 0 3.80396 0 5.23538C0 6.70867 0.549043 8.05728 1.7278 9.47966C2.7823 10.752 4.29785 12.0436 6.0529 13.5392C6.65218 14.05 7.33147 14.6289 8.03682 15.2456C8.22315 15.4088 8.46225 15.4987 8.71026 15.4987C8.95813 15.4987 9.19737 15.4088 9.38344 15.2459C10.0888 14.6291 10.7685 14.0498 11.368 13.5388C13.1228 12.0435 14.6384 10.752 15.6928 9.47953C16.8716 8.05728 17.4205 6.70867 17.4205 5.23525C17.4205 3.80396 16.9297 2.48339 16.0385 1.51675Z" fill="#AFAFAF"/>
</svg>
