<svg width="342" height="354" viewBox="0 0 342 354" fill="none" xmlns="http://www.w3.org/2000/svg">
<g filter="url(#filter0_d_1_691)">
<path fill-rule="evenodd" clip-rule="evenodd" d="M115.93 91.2158H199.424C204.947 91.2158 209.424 95.693 209.424 101.216V219C209.424 224.523 204.947 229 199.424 229H79C73.4772 229 69 224.523 69 219V101.216C69 95.693 73.4772 91.2158 79 91.2158H88.7248L100.514 77.0378L115.93 91.2158Z" fill="white"/>
<path d="M115.93 91.2158L115.608 91.5659L115.745 91.6915H115.93V91.2158ZM88.7248 91.2158V91.6915H88.9479L89.0906 91.52L88.7248 91.2158ZM100.514 77.0378L100.836 76.6877L100.468 76.3493L100.149 76.7337L100.514 77.0378ZM115.93 91.6915H199.424V90.7402H115.93V91.6915ZM199.424 91.6915C204.684 91.6915 208.948 95.9557 208.948 101.216H209.899C209.899 95.4303 205.209 90.7402 199.424 90.7402V91.6915ZM208.948 101.216V219H209.899V101.216H208.948ZM208.948 219C208.948 224.26 204.684 228.524 199.424 228.524V229.476C205.209 229.476 209.899 224.786 209.899 219H208.948ZM199.424 228.524H79V229.476H199.424V228.524ZM79 228.524C73.7399 228.524 69.4757 224.26 69.4757 219H68.5243C68.5243 224.786 73.2145 229.476 79 229.476V228.524ZM69.4757 219V101.216H68.5243V219H69.4757ZM69.4757 101.216C69.4757 95.9557 73.7399 91.6915 79 91.6915V90.7402C73.2145 90.7402 68.5243 95.4303 68.5243 101.216H69.4757ZM79 91.6915H88.7248V90.7402H79V91.6915ZM89.0906 91.52L100.88 77.342L100.149 76.7337L88.3591 90.9117L89.0906 91.52ZM100.192 77.3879L115.608 91.5659L116.252 90.8657L100.836 76.6877L100.192 77.3879Z" fill="#ECECEC"/>
</g>
<defs>
<filter id="filter0_d_1_691" x="0.523438" y="0.349365" width="341.377" height="353.126" filterUnits="userSpaceOnUse" color-interpolation-filters="sRGB">
<feFlood flood-opacity="0" result="BackgroundImageFix"/>
<feColorMatrix in="SourceAlpha" type="matrix" values="0 0 0 0 0 0 0 0 0 0 0 0 0 0 0 0 0 0 127 0" result="hardAlpha"/>
<feOffset dx="32" dy="24"/>
<feGaussianBlur stdDeviation="50"/>
<feColorMatrix type="matrix" values="0 0 0 0 0.09375 0 0 0 0 0.09375 0 0 0 0 0.09375 0 0 0 0.0972738 0"/>
<feBlend mode="normal" in2="BackgroundImageFix" result="effect1_dropShadow_1_691"/>
<feBlend mode="normal" in="SourceGraphic" in2="effect1_dropShadow_1_691" result="shape"/>
</filter>
</defs>
</svg>
