<svg width="13" height="24" viewBox="0 0 13 24" fill="none" xmlns="http://www.w3.org/2000/svg">
<path d="M3.56047 13.4036C3.47151 13.4036 1.51432 13.4036 0.624693 13.4036C0.150225 13.4036 0.00195312 13.2257 0.00195312 12.7809C0.00195312 11.5947 0.00195312 10.3789 0.00195312 9.19272C0.00195312 8.71825 0.179879 8.56998 0.624693 8.56998H3.56047C3.56047 8.48102 3.56047 6.76107 3.56047 5.9604C3.56047 4.77423 3.76805 3.64737 4.36114 2.60946C4.98388 1.54191 5.8735 0.830207 7.00037 0.415047C7.74172 0.148158 8.48308 0.029541 9.28375 0.029541H12.1899C12.605 0.029541 12.783 0.207467 12.783 0.622627V4.00322C12.783 4.41838 12.605 4.5963 12.1899 4.5963C11.3892 4.5963 10.5885 4.5963 9.78787 4.62596C8.98721 4.62596 8.57205 5.01146 8.57205 5.84178C8.54239 6.73141 8.57205 7.59139 8.57205 8.51067H12.0119C12.4864 8.51067 12.6643 8.6886 12.6643 9.16306V12.7512C12.6643 13.2257 12.5161 13.374 12.0119 13.374C10.9444 13.374 8.66101 13.374 8.57205 13.374V23.0413C8.57205 23.5454 8.42377 23.7233 7.89 23.7233C6.64452 23.7233 5.42869 23.7233 4.18321 23.7233C3.73839 23.7233 3.56047 23.5454 3.56047 23.1006C3.56047 19.9869 3.56047 13.4926 3.56047 13.4036Z" fill="#628FF1"/>
</svg>
