<svg width="10" height="18" viewBox="0 0 10 18" fill="none" xmlns="http://www.w3.org/2000/svg">
<path d="M9.39546 4.91553C9.29133 4.72808 9.08302 4.6031 8.8539 4.6031H6.68772L7.64585 0.791482C7.68751 0.604027 7.64585 0.416571 7.54172 0.249927C7.41673 0.104133 7.25013 0 7.04182 0H2.20961C1.89717 0 1.64725 0.208266 1.58477 0.520704L0.0226213 9.2687C-0.0190399 9.45616 0.0434319 9.64361 0.168415 9.78941C0.293399 9.9352 0.460003 10.0185 0.647458 10.0185H2.62618L2.27208 16.4754C2.25127 16.767 2.43873 17.0377 2.73032 17.121C2.79279 17.1419 2.83445 17.1419 2.89696 17.1419C3.12608 17.1419 3.33434 17.0169 3.45933 16.8086L9.41627 5.51956C9.49959 5.33211 9.49959 5.10299 9.39546 4.91553Z" fill="#1E418D"/>
</svg>
