<svg width="10" height="10" viewBox="0 0 10 10" fill="none" xmlns="http://www.w3.org/2000/svg">
<path d="M8.15857 0.350342C7.34089 0.350342 6.67803 1.0132 6.67803 1.83088C6.67869 1.93495 6.69032 2.03866 6.71273 2.14029L3.35114 3.82108C3.07064 3.49814 2.66416 3.3123 2.2364 3.31142C1.41872 3.31142 0.755859 3.97429 0.755859 4.79197C0.755859 5.60965 1.41872 6.27251 2.2364 6.27251C2.6643 6.27203 3.07106 6.08644 3.35187 5.76357L6.71128 7.44364C6.68936 7.54532 6.67821 7.64903 6.67803 7.75305C6.67803 8.57073 7.34089 9.23359 8.15857 9.23359C8.97625 9.23359 9.63911 8.57073 9.63911 7.75305C9.63911 6.93537 8.97625 6.27251 8.15857 6.27251C7.73067 6.27299 7.32391 6.45858 7.0431 6.78144L3.68369 5.10138C3.70561 4.99969 3.71676 4.89598 3.71694 4.79197C3.71623 4.68814 3.7046 4.58467 3.68224 4.48328L7.04382 2.80249C7.32446 3.12517 7.73092 3.31073 8.15857 3.31142C8.97625 3.31142 9.63911 2.64856 9.63911 1.83088C9.63911 1.0132 8.97625 0.350342 8.15857 0.350342Z" fill="#ADADAD"/>
</svg>
