<svg width="14" height="15" viewBox="0 0 14 15" fill="none" xmlns="http://www.w3.org/2000/svg">
<path d="M11.6667 0.372314C10.378 0.372314 9.33333 1.43879 9.33333 2.75434C9.33437 2.92178 9.3527 3.08864 9.38802 3.25215L4.09017 5.95636C3.64809 5.43677 3.00748 5.13778 2.33333 5.13637C1.04467 5.13637 0 6.20284 0 7.5184C0 8.83396 1.04467 9.90043 2.33333 9.90043C3.0077 9.89966 3.64876 9.60107 4.09131 9.08161L9.38574 11.7847C9.35119 11.9482 9.33362 12.1151 9.33333 12.2825C9.33333 13.598 10.378 14.6645 11.6667 14.6645C12.9553 14.6645 14 13.598 14 12.2825C14 10.9669 12.9553 9.90043 11.6667 9.90043C10.9923 9.90121 10.3512 10.1998 9.90869 10.7193L4.61426 8.01621C4.64881 7.85261 4.66638 7.68576 4.66667 7.5184C4.66555 7.35135 4.64722 7.18489 4.61198 7.02176L9.90983 4.31755C10.3521 4.8367 10.9927 5.13526 11.6667 5.13637C12.9553 5.13637 14 4.0699 14 2.75434C14 1.43879 12.9553 0.372314 11.6667 0.372314Z" fill="#ADADAD"/>
</svg>
