<svg width="14" height="14" viewBox="0 0 14 14" fill="none" xmlns="http://www.w3.org/2000/svg">
<path d="M11.6667 0C10.378 0 9.33333 1.04467 9.33333 2.33333C9.33437 2.49735 9.3527 2.66079 9.38802 2.82096L4.09017 5.46989C3.64809 4.96093 3.00748 4.66804 2.33333 4.66667C1.04467 4.66667 0 5.71134 0 7C0 8.28866 1.04467 9.33333 2.33333 9.33333C3.0077 9.33257 3.64876 9.04009 4.09131 8.53125L9.38574 11.179C9.35119 11.3393 9.33362 11.5027 9.33333 11.6667C9.33333 12.9553 10.378 14 11.6667 14C12.9553 14 14 12.9553 14 11.6667C14 10.378 12.9553 9.33333 11.6667 9.33333C10.9923 9.33409 10.3512 9.62658 9.90869 10.1354L4.61426 7.48763C4.64881 7.32738 4.66638 7.16393 4.66667 7C4.66555 6.83637 4.64722 6.67331 4.61198 6.51351L9.90983 3.86458C10.3521 4.37312 10.9927 4.66558 11.6667 4.66667C12.9553 4.66667 14 3.622 14 2.33333C14 1.04467 12.9553 0 11.6667 0Z" fill="#ADADAD"/>
</svg>
