<svg width="16" height="11" viewBox="0 0 16 11" fill="none" xmlns="http://www.w3.org/2000/svg">
<path d="M1.71781 0.775146C0.940626 0.775146 0.308594 1.40718 0.308594 2.18436V9.23043C0.308594 10.0076 0.940626 10.6396 1.71781 10.6396H10.8777C11.6549 10.6396 12.2869 10.0076 12.2869 9.23043V7.17441L14.665 9.0763C14.7925 9.17776 14.9482 9.23043 15.1053 9.23043C15.2089 9.23043 15.3136 9.20675 15.4109 9.16025C15.6554 9.04328 15.8099 8.79639 15.8099 8.52582V2.88897C15.8099 2.6184 15.6554 2.37084 15.4109 2.25317C15.1671 2.13691 14.8763 2.16939 14.665 2.33849L12.2869 4.24038V2.18436C12.2869 1.40718 11.6549 0.775146 10.8777 0.775146H1.71781Z" fill="#1E418D"/>
</svg>
