<svg width="14" height="14" viewBox="0 0 14 14" fill="none" xmlns="http://www.w3.org/2000/svg">
<path d="M12.8642 1.82129C12.1409 1.02043 11.1485 0.579346 10.0694 0.579346C9.26287 0.579346 8.52421 0.839662 7.87393 1.353C7.54581 1.61212 7.24849 1.92914 6.98635 2.29916C6.72432 1.92925 6.4269 1.61212 6.09867 1.353C5.4485 0.839662 4.70984 0.579346 3.90328 0.579346C2.82424 0.579346 1.83166 1.02043 1.10835 1.82129C0.393686 2.6128 0 3.69411 0 4.86619C0 6.07255 0.440378 7.17683 1.38584 8.34151C2.23163 9.38332 3.44723 10.4409 4.85493 11.6656C5.3356 12.0838 5.88045 12.5578 6.4462 13.0628C6.59565 13.1964 6.78743 13.27 6.98635 13.27C7.18517 13.27 7.37706 13.1964 7.5263 13.063C8.09204 12.5579 8.63721 12.0837 9.1181 11.6652C10.5256 10.4408 11.7412 9.38332 12.587 8.3414C13.5324 7.17683 13.9727 6.07255 13.9727 4.86608C13.9727 3.69411 13.579 2.6128 12.8642 1.82129Z" fill="#AFAFAF"/>
</svg>
