<svg width="14" height="13" viewBox="0 0 14 13" fill="none" xmlns="http://www.w3.org/2000/svg">
<path d="M12.8642 1.21656C12.1409 0.432063 11.1485 0 10.0694 0C9.26287 0 8.52421 0.254995 7.87393 0.757843C7.54581 1.01167 7.24849 1.3222 6.98635 1.68465C6.72432 1.32231 6.4269 1.01167 6.09867 0.757843C5.4485 0.254995 4.70984 0 3.90328 0C2.82424 0 1.83166 0.432063 1.10835 1.21656C0.393686 1.99188 0 3.05109 0 4.19921C0 5.38091 0.440378 6.46261 1.38584 7.60348C2.23163 8.62399 3.44723 9.65997 4.85493 10.8596C5.3356 11.2692 5.88045 11.7336 6.4462 12.2283C6.59565 12.3592 6.78743 12.4312 6.98635 12.4312C7.18517 12.4312 7.37706 12.3592 7.5263 12.2285C8.09204 11.7337 8.63721 11.2691 9.1181 10.8593C10.5256 9.65986 11.7412 8.62399 12.587 7.60337C13.5324 6.46261 13.9727 5.38091 13.9727 4.1991C13.9727 3.05109 13.579 1.99188 12.8642 1.21656Z" fill="#AFAFAF"/>
</svg>
