<svg width="18" height="18" viewBox="0 0 18 18" fill="none" xmlns="http://www.w3.org/2000/svg">
<path fill-rule="evenodd" clip-rule="evenodd" d="M6.37764 7.95337C5.83915 7.95337 5.31612 7.84807 4.82302 7.64031C4.34741 7.43995 3.92051 7.1534 3.55423 6.78861C3.18794 6.42384 2.90023 5.99868 2.69908 5.52497C2.4905 5.03388 2.38474 4.51297 2.38474 3.97667C2.38474 3.4404 2.49047 2.91949 2.69908 2.42838C2.90023 1.9547 3.18791 1.52957 3.55423 1.16474C3.92051 0.79994 4.34741 0.513392 4.82302 0.313032C5.31612 0.105306 5.83918 0 6.37764 0C6.91609 0 7.43916 0.105306 7.93225 0.313062C8.40786 0.513392 8.83473 0.79997 9.20104 1.16477C9.56733 1.52954 9.85505 1.9547 10.0562 2.42841C10.2648 2.91949 10.3705 3.44043 10.3705 3.9767C10.3705 4.51297 10.2648 5.03388 10.0562 5.525C9.85501 5.99871 9.5673 6.42387 9.20104 6.78864C8.83476 7.15343 8.40786 7.43998 7.93225 7.64034C7.43916 7.84804 6.91612 7.95337 6.37764 7.95337ZM13.7775 18C13.2081 18 12.6549 17.8887 12.1335 17.669C11.8716 17.5587 11.6201 17.4214 11.3859 17.2609C11.2131 17.3112 11.0339 17.3367 10.8532 17.3367H1.90203C0.853249 17.3367 0 16.4868 0 15.4423V13.229C0 12.6065 0.122729 12.0018 0.364777 11.4319C0.598252 10.8821 0.932241 10.3886 1.35748 9.9651C1.78271 9.54156 2.27825 9.20893 2.83029 8.9764C3.40252 8.73534 4.00965 8.61314 4.63474 8.61314H8.12051C8.74568 8.61314 9.35278 8.73537 9.92492 8.9764C10.477 9.20893 10.9725 9.54156 11.3978 9.9651C11.4687 10.0358 11.5388 10.1103 11.6063 10.187C11.7747 10.0864 11.9519 9.99672 12.1334 9.92031C12.6549 9.70065 13.2081 9.58927 13.7774 9.58927C14.3469 9.58927 14.9 9.70065 15.4214 9.92031C15.9244 10.1322 16.3758 10.4352 16.7632 10.821C17.1505 11.2068 17.4548 11.6564 17.6676 12.1573C17.8882 12.6766 18 13.2275 18 13.7946C18 14.3618 17.8882 14.9126 17.6676 15.432C17.4549 15.9329 17.1506 16.3825 16.7632 16.7683C16.3759 17.1541 15.9244 17.4571 15.4214 17.669C14.9 17.8886 14.3469 18 13.7775 18ZM13.7775 10.9072C13.2635 10.9072 12.7583 11.043 12.3167 11.3C12.1272 11.4104 11.9499 11.5426 11.7897 11.6928C11.6075 11.8638 11.448 12.0577 11.3155 12.2692C11.0294 12.7263 10.8782 13.2538 10.8782 13.7946C10.8782 14.4221 11.0768 15.0189 11.4527 15.5203C11.5949 15.71 11.7607 15.8823 11.9455 16.0325C12.1121 16.168 12.2941 16.285 12.4864 16.3805C12.8897 16.5806 13.324 16.682 13.7775 16.682C15.3761 16.682 16.6767 15.3867 16.6767 13.7946C16.6767 12.2024 15.3761 10.9072 13.7775 10.9072ZM13.7775 15.869C13.4126 15.869 13.1158 15.5734 13.1158 15.2101V14.4536H12.3563C12.263 14.4536 12.1726 14.4345 12.0875 14.3968C11.8489 14.2909 11.6946 14.0546 11.6946 13.7946C11.6946 13.5348 11.8487 13.2986 12.0873 13.1927C12.1723 13.1549 12.2628 13.1357 12.3563 13.1357H13.1158V12.3792C13.1158 12.0159 13.4126 11.7203 13.7775 11.7203C14.1423 11.7203 14.4391 12.0159 14.4391 12.3792V13.1357H15.1987C15.5635 13.1357 15.8603 13.4313 15.8603 13.7946C15.8603 14.158 15.5635 14.4536 15.1987 14.4536H14.4391V15.2101C14.4391 15.5734 14.1423 15.869 13.7775 15.869Z" fill="#1E418D"/>
</svg>
